<?xml version="1.0" encoding="UTF-8"?>
<svg width="206px" height="206px" viewBox="0 0 206 206" version="1.1" xmlns="http://www.w3.org/2000/svg" xmlns:xlink="http://www.w3.org/1999/xlink">
    <title>Scarab</title>
    <g id="Scarab" stroke="none" fill="none" fill-rule="evenodd">
        <path d="M152.451805,105.032369 C153.145569,105.444565 153.972024,106.519124 153.976081,107.565649 L153.999973,113.919161 C154.007822,115.992492 152.29859,117.520823 150.380538,117.299164 C148.418573,117.072278 147.292848,115.425159 147.410981,113.065311 L141.185484,116.121734 L141.182143,123.497301 L150.882902,123.566673 C152.458249,123.578077 153.980376,124.969801 153.978706,126.606466 L153.958659,146.534395 C153.936226,169.070677 134.943759,187.177581 112.308495,186.998686 C110.655825,186.985619 109.345382,185.481996 109.314357,183.906863 C109.285719,182.461209 110.320756,180.576276 112.2758,180.58768 C130.866375,180.696728 147.24822,166.174143 147.391889,147.625584 L147.515988,131.614344 C147.519568,131.155821 147.506919,130.041587 147.005748,130.037073 L141.244431,129.983618 L141.086682,142.624834 C140.861155,160.668304 124.229918,174.499066 106.120944,174.325397 L106.106625,117.548382 C106.10567,113.871408 108.635629,111.12621 112.326155,110.862025 L137.313104,110.838742 L149.274621,104.888635 C150.311328,104.373094 151.449702,104.437002 152.451805,105.032369 Z M56.8821223,104.972548 L64.3994468,110.536117 C65.1521577,110.321348 66.0043869,110.818833 66.7845429,110.820021 L93.8766473,110.864686 C97.4521436,111.255737 99.8971415,113.948906 99.8971415,117.548905 L99.8895046,174.31808 C83.2849974,174.507904 68.1863894,162.935783 65.5084664,146.713813 L64.8466821,142.705182 L64.8278286,130.049712 L58.5455323,130.057552 L58.6125937,147.569801 C58.6844282,166.294879 75.324256,180.773037 93.8513501,180.591529 C95.523829,180.575136 96.6454971,182.379531 96.6853521,183.726353 C96.7268777,185.140171 95.5529446,186.951931 93.9181729,186.978064 C71.2378041,187.341319 52.0806666,169.134633 52.0415275,146.540144 L52.0074002,126.832449 C52.0045363,125.150407 53.3388441,123.558406 55.079339,123.547715 L64.7920307,123.488083 L64.8175665,118.924711 L58.5662951,114.276286 C58.1949513,116.190679 56.8952482,117.384026 55.1378089,117.312516 C53.5359714,117.24742 52.0064456,115.949063 52.0050136,114.130652 L52.000001,107.811351 C51.9990473,106.648413 52.7023571,105.531803 53.5619845,105.02719 C54.4750701,104.49098 55.923454,104.263144 56.8821223,104.972548 Z M140.92929,39.1470455 C149.010313,47.7199985 153.898399,58.7922578 153.928708,70.6261878 L153.991242,95.1205769 C153.994576,96.4303369 152.819211,98.1950562 151.4608,98.2055096 L141.220208,98.2853353 C141.186319,99.5791777 141.204934,100.843323 141.106132,102.041422 C140.957928,103.840827 139.210513,104.683987 137.603186,104.681611 L113.037221,104.646925 C109.151954,104.641223 105.731105,105.960249 103.007838,108.952526 C100.543747,106.455834 97.6608216,104.707982 94.1557279,104.704894 L68.3955447,104.681611 C66.7937071,104.680186 64.9329313,103.834175 64.8816209,102.05045 L64.7737498,98.2853353 L54.8591579,98.2435218 C53.23966,98.2366321 52.0008134,96.6070939 52.0036722,95.1182011 L52.0497372,70.8114976 C52.0724092,58.9780427 56.905367,47.8763239 64.9493983,39.2591816 C66.2853767,37.82802 68.408432,37.6213283 69.7864132,38.9707636 C71.212841,40.3672391 70.9572439,42.4051715 69.5771147,43.8558145 C61.9633745,51.8588211 58.4470641,62.3350006 58.4883511,73.3015383 L58.5582763,91.8600751 L65.3474712,91.8565114 C67.9936534,80.3057728 78.3194441,72.4631304 90.2124677,72.838739 C90.3045877,65.5315943 96.2620775,60.1402676 103.102583,60.1984739 C110.002274,60.2571553 115.675528,65.7423248 115.805355,72.86511 C127.790022,72.426306 138.048274,80.4511697 140.636463,91.8548484 L147.45549,91.8584121 L147.369575,69.7540439 C147.330913,59.8307053 142.826341,50.6402906 136.123539,43.4804434 C134.841735,42.1110516 134.993279,40.1120818 136.285584,38.9018664 C137.545671,37.7220608 139.631258,37.7698137 140.92929,39.1470455 Z M102.997385,19 C113.572806,19 122.146169,27.5344656 122.146169,38.0624368 C122.146169,48.590408 113.572806,57.1248737 102.997385,57.1248737 C92.4217244,57.1248737 83.8483612,48.590408 83.8483612,38.0624368 C83.8483612,27.5344656 92.4217244,19 102.997385,19 Z" id="Combined-Shape" fill="color(display-p3 0.000 0.000 0.000)"></path>
    </g>
</svg>